HIERARCHY
ROOT Pelvis
{
	OFFSET 0.000000 0.000000 0.000000
	CHANNELS 6 Xposition Yposition Zposition Zrotation Yrotation Xrotation 
	JOINT Left_hip
	{
		OFFSET 0.067986 -0.089946 -0.007639
		CHANNELS 3 Zrotation Yrotation Xrotation
		JOINT Left_knee
		{
			OFFSET 0.036308 -0.388288 -0.004016
			CHANNELS 3 Zrotation Yrotation Xrotation
			JOINT Left_ankle
			{
				OFFSET -0.012264 -0.413250 -0.042878
				CHANNELS 3 Zrotation Yrotation Xrotation
				JOINT Left_foot
				{
					OFFSET 0.024043 -0.058563 0.118570
					CHANNELS 3 Zrotation Yrotation Xrotation
					End Site
					{
						OFFSET 0.000000 0.000000 0.000000
					}
				}
			}
		}
	}
	JOINT Right_hip
	{
		OFFSET -0.065648 -0.089374 -0.003858
		CHANNELS 3 Zrotation Yrotation Xrotation
		JOINT Right_knee
		{
			OFFSET -0.042132 -0.395021 -0.006361
			CHANNELS 3 Zrotation Yrotation Xrotation
			JOINT Right_ankle
			{
				OFFSET 0.014805 -0.413264 -0.041054
				CHANNELS 3 Zrotation Yrotation Xrotation
				JOINT Right_foot
				{
					OFFSET -0.021758 -0.049013 0.121832
					CHANNELS 3 Zrotation Yrotation Xrotation
					End Site
					{
						OFFSET 0.000000 0.000000 0.000000
					}
				}
			}
		}
	}
	JOINT Spine1
	{
		OFFSET -0.002755 0.104406 -0.022277
		CHANNELS 3 Zrotation Yrotation Xrotation
		JOINT Spine2
		{
			OFFSET 0.004136 0.129393 -0.002186
			CHANNELS 3 Zrotation Yrotation Xrotation
			JOINT Spine3
			{
				OFFSET 0.001906 0.049304 0.025578
				CHANNELS 3 Zrotation Yrotation Xrotation
				JOINT Neck
				{
					OFFSET -0.004620 0.210958 -0.044063
					CHANNELS 3 Zrotation Yrotation Xrotation
					JOINT Head
					{
						OFFSET 0.003833 0.067393 0.052435
						CHANNELS 3 Zrotation Yrotation Xrotation
						End Site
						{
							OFFSET 0.000000 0.000000 0.000000
						}
					}
				}
				JOINT Left_collar
				{
					OFFSET 0.070771 0.116689 -0.037192
					CHANNELS 3 Zrotation Yrotation Xrotation
					JOINT Left_shoulder
					{
						OFFSET 0.080652 0.031596 -0.005617
						CHANNELS 3 Zrotation Yrotation Xrotation
						JOINT Left_elbow
						{
							OFFSET 0.262654 -0.015020 -0.027939
							CHANNELS 3 Zrotation Yrotation Xrotation
							JOINT Left_wrist
							{
								OFFSET 0.250438 0.010062 -0.000990
								CHANNELS 3 Zrotation Yrotation Xrotation
								JOINT Left_palm
								{
									OFFSET 0.081198 -0.010037 -0.013706
									CHANNELS 3 Zrotation Yrotation Xrotation
									End Site
									{
										OFFSET 0.000000 0.000000 0.000000
									}
								}
							}
						}
					}
				}
				JOINT Right_collar
				{
					OFFSET -0.072972 0.115556 -0.040762
					CHANNELS 3 Zrotation Yrotation Xrotation
					JOINT Right_shoulder
					{
						OFFSET -0.082917 0.031841 -0.006673
						CHANNELS 3 Zrotation Yrotation Xrotation
						JOINT Right_elbow
						{
							OFFSET -0.252882 -0.013790 -0.020410
							CHANNELS 3 Zrotation Yrotation Xrotation
							JOINT Right_wrist
							{
								OFFSET -0.255570 0.009163 -0.005138
								CHANNELS 3 Zrotation Yrotation Xrotation
								JOINT Right_palm
								{
									OFFSET -0.080804 -0.007282 -0.010415
									CHANNELS 3 Zrotation Yrotation Xrotation
									End Site
									{
										OFFSET 0.000000 0.000000 0.000000
									}
								}
							}
						}
					}
				}
			}
		}
	}
}
MOTION
Frames: 5
Frame Time: 0.100000
0.000000 0.000000 0.000000 174.742924 24.438971 -12.842396 8.991806 6.450799 2.651256 -2.631617 -17.235953 -2.233382 -4.647897 15.433217 -4.368618 2.482396 -1.334292 -5.377338 -7.088478 -5.351802 1.803131 3.558011 12.817782 1.112358 7.137834 -13.997905 -6.381870 -2.452186 5.589414 3.116050 0.687410 1.871176 2.304949 0.896098 -2.929695 -0.148201 1.566566 1.516359 1.466370 -6.151317 0.473456 4.324825 6.215134 0.389426 -16.131725 -2.691321 2.534672 -8.995717 1.214124 0.601816 -13.784200 0.620156 -6.064215 -4.883494 -1.726194 -6.055163 25.858663 -5.960422 -8.118360 -8.617578 3.154625 0.508324 -3.382072 0.122748 -7.009328 -19.692828 -1.502874 8.272707 -1.943048 4.013463 5.644192 26.666978 10.653154 7.626893 -7.451054 
-0.000282 -0.000004 0.000313 174.774888 24.378995 -12.821238 8.988924 6.461292 2.710918 -2.661010 -17.181552 -2.267461 -4.588656 15.412040 -4.373352 2.442812 -1.281892 -5.362069 -7.122616 -5.330726 1.819832 3.566336 12.809961 1.104046 7.116607 -13.938394 -6.397753 -2.402765 5.529421 3.152893 0.695471 1.853122 2.303890 0.902408 -2.942645 -0.143670 1.546558 1.501673 1.447743 -6.118022 0.538608 4.461050 6.119808 0.491603 -15.949403 -2.764988 2.588092 -8.999362 1.017601 0.541529 -13.745084 0.690661 -6.015890 -5.011564 -1.685872 -5.998276 25.744139 -5.994152 -8.117916 -8.606141 3.207753 0.434123 -3.411578 0.245329 -6.883541 -19.659711 -1.603633 8.352424 -2.050879 3.930027 5.610979 26.638356 10.701780 7.627114 -7.459496 
-0.000435 -0.000010 0.000524 174.782690 24.357423 -12.801783 8.984429 6.461477 2.723252 -2.661163 -17.175916 -2.266737 -4.574325 15.419885 -4.398316 2.443200 -1.273209 -5.340596 -7.131084 -5.323392 1.807134 3.576114 12.813818 1.128072 7.094923 -13.915241 -6.412509 -2.380552 5.500093 3.154275 0.699572 1.845746 2.349139 0.897267 -2.946641 -0.093325 1.533637 1.484038 1.439773 -6.109837 0.547160 4.444923 6.094820 0.525388 -15.949970 -2.848418 2.597046 -8.962442 0.938280 0.567224 -13.659645 0.612206 -5.871357 -4.920864 -1.803262 -5.970330 25.784979 -5.982063 -8.111009 -8.614971 3.269732 0.377920 -3.412775 0.313956 -6.941779 -19.617671 -1.588636 8.309242 -2.087341 4.034272 5.574857 26.593801 10.711340 7.617264 -7.457450 
-0.000645 -0.000102 0.000927 174.780792 24.307080 -12.786904 9.001075 6.470463 2.784320 -2.646851 -17.140003 -2.334396 -4.554667 15.399420 -4.408722 2.426833 -1.243703 -5.290012 -7.128301 -5.305941 1.857859 3.565451 12.805075 1.041888 7.035328 -13.864480 -6.386423 -2.244004 5.455895 3.229244 0.670152 1.839102 2.261224 0.929661 -2.953172 0.029861 1.522708 1.481509 1.404958 -6.084596 0.519053 4.641805 6.057591 0.504755 -15.819432 -2.932644 2.673822 -8.943551 0.916018 0.543143 -13.554151 0.631727 -6.085735 -4.858745 -1.751474 -6.001279 25.686159 -6.007153 -8.103449 -8.617470 3.363687 0.316143 -3.422169 0.258975 -6.856085 -19.596865 -1.606329 8.323075 -2.143690 4.006039 5.578889 26.555278 10.731870 7.608861 -7.452398 
-0.000764 -0.000140 0.001393 174.783030 24.246178 -12.819715 9.028094 6.485228 2.866273 -2.648196 -17.115290 -2.318854 -4.526021 15.387004 -4.449709 2.395081 -1.200005 -5.261485 -7.123276 -5.298548 1.900066 3.583843 12.811762 1.083062 6.988536 -13.798280 -6.410677 -2.141356 5.390538 3.269085 0.656884 1.845169 2.210800 0.942686 -2.950255 0.163946 1.510652 1.483359 1.350376 -6.022508 0.535273 4.791450 6.041599 0.515241 -15.707843 -2.991791 2.632652 -8.912609 0.866187 0.487843 -13.507257 0.604607 -6.015189 -4.774569 -1.795083 -5.954148 25.765635 -6.015292 -8.117232 -8.683264 3.396806 0.336225 -3.389319 0.240045 -6.808831 -19.591685 -1.624440 8.374391 -2.151432 4.010244 5.559823 26.541257 10.763365 7.606077 -7.471301 
